ply
format ascii 1.0
element vertex 34
property float x
property float y
property float z
property uchar red
property uchar green
property uchar blue
end_header
38.53792953491211 -449.47198486328125 24.0 140 139 128
40.7213020324707 -447.13909912109375 24.0 134 139 127
269.4218444824219 -128.13079833984375 1345.0 171 192 190
272.34783935546875 -116.98092651367188 2829.0 194 222 215
278.1318054199219 -286.2037048339844 31.0 113 113 109
292.8096618652344 -286.4218444824219 29.0 113 118 112
392.1015930175781 -286.8726501464844 15.0 114 115 106
395.84747314453125 -138.0172119140625 21.0 153 180 185
409.1673583984375 -269.47821044921875 21.0 11 18 12
422.9757385253906 -128.0606231689453 14.0 7 14 13
423.6583557128906 -135.637939453125 14.0 29 38 36
436.4150085449219 -247.60107421875 22.0 170 161 79
475.411865234375 -132.19041442871094 17.0 166 147 54
479.10406494140625 -132.07778930664062 17.0 163 145 49
483.318603515625 -126.9588851928711 29.0 28 60 84
488.0635986328125 -126.61487579345703 28.0 32 69 92
534.6795654296875 -288.2354431152344 13.0 104 102 68
546.751708984375 -246.61968994140625 15.0 11 11 0
551.0975952148438 -123.44371032714844 13.0 22 34 31
551.12548828125 -130.19009399414062 13.0 28 44 45
553.5174560546875 -126.55839538574219 13.0 11 18 16
554.6112670898438 -182.52381896972656 12.0 11 21 14
555.4202270507812 -133.38194274902344 13.0 10 21 19
557.9422607421875 -220.0063018798828 14.0 5 13 4
557.9649658203125 -216.38844299316406 14.0 6 14 7
562.0128784179688 -37.482696533203125 13.0 0 20 23
572.0670776367188 -264.7508544921875 13.0 14 22 16
572.0670776367188 -264.7508544921875 13.0 14 22 16
583.3029174804688 -130.3644561767578 13.0 1 10 8
583.3029174804688 -130.3644561767578 13.0 1 10 8
592.1351928710938 -194.29757690429688 13.0 24 91 155
601.9659423828125 -266.2943420410156 13.0 16 17 12
606.8081665039062 -156.54129028320312 13.0 31 93 161
631.9518432617188 -132.9726104736328 12.0 0 4 1
