ply
format ascii 1.0
element vertex 25
property float x
property float y
property float z
property uchar red
property uchar green
property uchar blue
end_header
39.2283935546875 -52.58432388305664 53.0 182 205 209
263.6346435546875 -137.81112670898438 237.0 164 185 185
265.5794982910156 -222.25845336914062 85.0 151 169 170
276.8583984375 -98.53296661376953 15711.0 192 217 216
282.29827880859375 -116.21748352050781 6544.0 33 54 49
292.9653015136719 -120.7377700805664 581.0 149 173 182
427.39129638671875 -113.11482238769531 20.0 153 175 186
429.5033874511719 -110.69808197021484 20.0 152 178 186
432.8165588378906 -265.96478271484375 14.0 18 33 23
440.8956298828125 -111.28022766113281 17.0 155 178 182
442.2193603515625 -242.8501434326172 28.0 148 175 185
444.5906677246094 -105.50399780273438 17.0 117 136 145
454.599609375 -57.52286911010742 17.0 25 39 38
454.599609375 -57.52286911010742 17.0 25 39 38
457.01434326171875 -301.1840515136719 15.0 98 100 79
483.2132873535156 -300.9604797363281 14.0 116 119 91
497.065673828125 -100.91940307617188 13.0 16 64 110
508.19903564453125 -264.8224792480469 26.0 21 29 18
526.563232421875 -99.87286376953125 12.0 20 76 138
538.799072265625 -99.43890380859375 12.0 16 79 140
556.0711059570312 -301.1719665527344 11.0 112 113 79
559.96142578125 -101.10063171386719 11.0 20 69 115
602.9843139648438 -97.42594909667969 10.0 11 88 147
619.2258911132812 -96.88296508789062 10.0 27 43 46
632.2693481445312 -100.89933776855469 11.0 26 40 37
