ply
format ascii 1.0
element vertex 32
property float x
property float y
property float z
property uchar red
property uchar green
property uchar blue
end_header
262.2726745605469 -231.6313934326172 79.0 100 96 90
271.689453125 -196.48638916015625 79.0 83 76 80
277.8768310546875 -247.2367401123047 79.0 138 154 150
283.5195007324219 -254.41851806640625 80.0 127 127 123
291.7816162109375 -234.77281188964844 79.0 151 155 159
296.14678955078125 -191.4923858642578 80.0 206 90 64
296.9654541015625 -240.0515594482422 80.0 167 174 172
297.1934509277344 -216.13380432128906 80.0 178 200 206
297.5984191894531 -174.60792541503906 214.0 205 69 62
301.25042724609375 -236.19618225097656 82.0 159 170 172
302.20849609375 -169.6217803955078 56.0 208 76 54
302.8051452636719 -246.0943145751953 81.0 180 187 185
308.6737060546875 -181.1673126220703 80.0 96 62 42
310.0174865722656 -213.1220703125 80.0 70 79 59
311.8892822265625 -226.17718505859375 79.0 46 56 47
311.8892822265625 -226.17718505859375 79.0 46 56 47
313.7406311035156 -253.77362060546875 79.0 128 130 111
316.6419372558594 -221.43374633789062 80.0 182 164 82
317.9442138671875 -189.9665985107422 79.0 28 95 157
319.3046569824219 -179.00125122070312 66.0 172 201 208
322.4936828613281 -174.46304321289062 80.0 184 201 204
325.8331604003906 -186.92091369628906 81.0 18 64 90
326.9896240234375 -169.2587890625 81.0 181 203 214
326.989990234375 -194.81642150878906 80.0 29 97 173
331.47283935546875 -184.56004333496094 80.0 21 52 32
336.4988708496094 -164.19326782226562 58.0 55 76 65
346.40655517578125 -238.09567260742188 81.0 102 128 145
353.42938232421875 -189.90589904785156 82.0 178 195 205
358.5469970703125 -258.0937805175781 28.0 119 126 129
363.7054138183594 -258.4474182128906 28.0 103 114 114
366.7640075683594 -255.4384307861328 24.0 119 131 128
398.9114074707031 -261.1452941894531 26.0 80 73 75
