ply
format ascii 1.0
element vertex 34
property float x
property float y
property float z
property uchar red
property uchar green
property uchar blue
end_header
364.2693176269531 -205.25094604492188 38.0 165 186 190
370.43902587890625 -125.80560302734375 26.0 169 192 198
387.2439270019531 -46.75767135620117 270.0 140 175 162
392.9253845214844 -161.3798065185547 63.0 155 175 184
397.4454650878906 -48.258785247802734 32.0 52 66 63
409.4472351074219 -276.218994140625 32.0 117 124 122
450.1440124511719 -260.6652526855469 29.0 101 106 105
467.583740234375 -276.7956237792969 32.0 122 123 116
473.616455078125 -68.97782897949219 21.0 168 86 61
473.64019775390625 -39.73100662231445 20.0 180 61 38
477.4905090332031 -160.80752563476562 20.0 152 175 176
485.1742248535156 -54.346343994140625 20.0 35 43 37
486.2041931152344 -62.72760009765625 21.0 3 11 0
488.81536865234375 -251.07772827148438 20.0 48 47 38
499.4138488769531 -161.62564086914062 20.0 158 155 92
508.1335144042969 -46.8484001159668 20.0 158 185 190
508.1335144042969 -46.8484001159668 20.0 158 185 190
512.0932006835938 -277.2800598144531 20.0 115 111 78
549.74169921875 -197.927490234375 20.0 163 143 40
553.6170654296875 -260.84661865234375 29.0 111 105 72
560.97216796875 -266.4686584472656 21.0 115 109 74
572.0509643554688 -278.92059326171875 20.0 102 109 89
575.2056884765625 -169.90249633789062 20.0 28 37 17
575.6392211914062 -49.84619140625 20.0 63 76 73
584.304443359375 -158.57049560546875 20.0 44 54 45
586.471435546875 -155.9798126220703 20.0 11 18 10
590.919189453125 -158.6318817138672 20.0 34 38 37
596.6724853515625 -250.809326171875 20.0 15 25 18
601.510009765625 -59.61689376831055 20.0 17 32 24
606.074951171875 -138.42471313476562 20.0 155 180 183
610.4867553710938 -133.73794555664062 20.0 150 170 175
610.4867553710938 -133.73794555664062 20.0 150 170 175
615.554443359375 -250.89596557617188 20.0 38 45 39
624.0226440429688 -253.9439239501953 12.0 68 81 88
