ply
format ascii 1.0
element vertex 23
property float x
property float y
property float z
property uchar red
property uchar green
property uchar blue
end_header
415.1959533691406 -74.65217590332031 17.0 122 149 131
415.8852233886719 -118.04580688476562 17.0 117 142 122
437.26904296875 -166.9475555419922 163.0 99 130 146
438.1551513671875 -201.00698852539062 159.0 96 129 147
507.7756042480469 -191.7751007080078 16.0 138 158 162
557.3037719726562 -110.17996215820312 15.0 46 44 40
559.7227172851562 -138.01707458496094 15.0 78 92 84
559.7227172851562 -138.01707458496094 15.0 78 92 84
561.67236328125 -244.161865234375 15.0 14 26 19
561.67236328125 -244.161865234375 15.0 14 26 19
563.9561157226562 -140.48976135253906 15.0 28 42 30
567.6934204101562 -29.620851516723633 16.0 28 46 42
568.6689453125 -34.25362014770508 16.0 32 46 43
570.9037475585938 -31.180124282836914 16.0 35 53 49
571.6259155273438 -8.51383113861084 16.0 152 179 182
572.4873657226562 -80.9354476928711 13.0 27 86 138
573.30517578125 -88.04670715332031 15.0 22 81 131
573.361083984375 -93.23932647705078 15.0 30 84 138
579.9586181640625 -28.706819534301758 26.0 30 48 44
588.2098388671875 -132.43017578125 15.0 17 80 143
588.5608520507812 -138.99037170410156 15.0 63 74 29
596.8959350585938 -147.83351135253906 15.0 159 144 38
599.3076782226562 -287.18231201171875 15.0 120 111 65
