ply
format ascii 1.0
element vertex 11
property float x
property float y
property float z
property uchar red
property uchar green
property uchar blue
end_header
392.5811767578125 -77.27094268798828 25.0 173 192 187
397.75115966796875 -229.10345458984375 70.0 141 151 141
509.3191223144531 -276.7768859863281 254.0 56 57 27
510.8094482421875 -4.5966267585754395 97.0 15 12 0
605.1341552734375 -279.09954833984375 172.0 24 30 13
606.2473754882812 -30.575471878051758 16.0 32 40 27
613.9706420898438 -60.38626480102539 11.0 116 116 85
617.5079956054688 -121.11958312988281 10.0 118 109 86
624.5269775390625 -25.8939208984375 11.0 126 119 98
625.3173828125 -61.606666564941406 11.0 123 118 92
631.695068359375 -77.13059997558594 11.0 56 69 53
